<?xml version="1.0" standalone="no"?>
<!DOCTYPE svg PUBLIC "-//W3C//DTD SVG 20010904//EN"
 "http://www.w3.org/TR/2001/REC-SVG-20010904/DTD/svg10.dtd">
<svg version="1.0" xmlns="http://www.w3.org/2000/svg"
 width="1277.000000pt" height="1277.000000pt" viewBox="0 0 1277.000000 1277.000000"
 preserveAspectRatio="xMidYMid meet">
<metadata>
Created by potrace 1.11, written by Peter Selinger 2001-2013
</metadata>
<g transform="translate(0.000000,1277.000000) scale(0.100000,-0.100000)"
fill="#000000" stroke="none">
<path d="M4823 9164 c-141 -17 -320 -57 -432 -96 -280 -97 -555 -280 -751
-499 -70 -77 -80 -86 -84 -66 -5 23 -46 528 -46 560 0 16 -42 17 -745 17
l-745 0 0 -1425 0 -1425 395 0 395 0 0 -1325 0 -1325 790 0 790 0 0 1325 0
1325 -395 0 -395 0 0 609 0 609 40 60 c114 171 306 306 515 364 69 19 106 22
275 22 170 0 207 -2 285 -22 101 -26 183 -63 245 -113 59 -48 131 -161 163
-255 49 -148 57 -266 57 -795 l0 -479 395 0 395 0 0 -1325 0 -1325 795 0 795
0 0 1325 0 1325 -395 0 -395 0 -2 555 c-2 305 0 567 3 583 10 49 100 190 172
267 163 177 381 265 656 265 172 -1 315 -27 426 -79 119 -55 222 -179 266
-321 44 -141 49 -226 49 -747 0 -271 3 -499 6 -508 5 -13 56 -15 395 -15 l389
0 0 -1325 0 -1325 798 2 797 3 0 1320 0 1320 -395 3 -395 2 3 353 c4 402 -10
834 -33 1017 -63 503 -222 877 -490 1146 -55 56 -136 125 -179 154 -97 65
-251 139 -371 179 -404 135 -951 135 -1370 0 -125 -40 -351 -156 -465 -236
-113 -81 -324 -287 -405 -396 l-58 -78 -44 77 c-140 247 -335 428 -598 559
-255 126 -497 176 -832 174 -87 -1 -209 -7 -270 -15z"/>
</g>
</svg>
